name analog
datacolumns 19
datarows 32
range 0.229 0.2445
endheader
time	ground_force_vx	ground_force_vy	ground_force_vz	ground_force_px	ground_force_py	ground_force_pz	l_ground_force_vx	l_ground_force_vy	l_ground_force_vz	l_ground_force_px	l_ground_force_py	l_ground_force_pz	ground_torque_x	ground_torque_y	ground_torque_z	l_ground_torque_x	l_ground_torque_y	l_ground_torque_z
0.229	-0.0	-0.0	-0.0	15.022024154663086	59.60836410522461	-281.9748229980469	3.5009615421295166	-70.6635513305664	-336.3463134765625	-0.0	-0.0	-0.0	-0.0	-0.0	-0.0	70510.6328125	-28190.158203125	6439.59423828125
0.2295	-0.0	-0.0	-0.0	15.92067813873291	59.38800811767578	-282.7608947753906	3.5959835052490234	-70.6573486328125	-337.28045654296875	-0.0	-0.0	-0.0	-0.0	-0.0	-0.0	70803.140625	-28317.619140625	6358.103515625
0.23	-0.0	-0.0	-0.0	16.332347869873047	59.51159286499024	-282.5169677734375	3.6307201385498047	-71.04521179199219	-339.93701171875	-0.0	-0.0	-0.0	-0.0	-0.0	-0.0	71102.09375	-28539.337890625	6428.94921875
0.2305	-0.0	-0.0	-0.0	16.66188621520996	59.943607330322266	-283.82061767578125	4.1629838943481445	-71.28838348388672	-341.4450378417969	-0.0	-0.0	-0.0	-0.0	-0.0	-0.0	71816.96875	-28850.1328125	6584.0283203125
0.231	-0.0	-0.0	-0.0	17.12841796875	60.20409393310547	-283.984375	4.31235408782959	-71.62232971191406	-344.1018981933594	-0.0	-0.0	-0.0	-0.0	-0.0	-0.0	72436.3203125	-28974.658203125	6586.22509765625
0.2315	-0.0	-0.0	-0.0	16.956987380981445	60.23818206787109	-285.369384765625	4.360001564025879	-71.96905517578125	-346.8173217773437	-0.0	-0.0	-0.0	-0.0	-0.0	-0.0	72624.921875	-29012.228515625	6736.693359375
0.232	-0.0	-0.0	-0.0	16.83407211303711	60.28599548339844	-285.7225952148437	4.694920539855957	-71.83961486816406	-347.91632080078125	-0.0	-0.0	-0.0	-0.0	-0.0	-0.0	73040.234375	-29534.52734375	6600.17236328125
0.2325	-0.0	-0.0	-0.0	16.99819564819336	60.19174575805664	-289.7414855957031	5.363612174987793	-71.80552673339844	-347.9696350097656	-0.0	-0.0	-0.0	-0.0	-0.0	-0.0	73084.0078125	-29658.76171875	6774.1064453125
0.233	-0.0	-0.0	-0.0	16.993114471435547	60.31466674804688	-290.5047302246094	5.936842441558838	-71.11246490478516	-347.4325256347656	-0.0	-0.0	-0.0	-0.0	-0.0	-0.0	73126.6640625	-29716.681640625	6838.552734375
0.2335	-0.0	-0.0	-0.0	16.764225006103516	60.66425704956055	-294.4482421875	7.233401298522949	-71.00372314453125	-346.86846923828125	-0.0	-0.0	-0.0	-0.0	-0.0	-0.0	72891.5859375	-29935.994140625	6999.171875
0.234	-0.0	-0.0	-0.0	16.752803802490234	60.82781219482422	-297.1571044921875	8.283998489379883	-69.73344421386719	-344.26348876953125	-0.0	-0.0	-0.0	-0.0	-0.0	-0.0	72819.4765625	-30200.794921875	7239.87109375
0.23450000000000001	-0.0	-0.0	-0.0	16.195396423339844	60.83518600463867	-298.2166442871094	9.676446914672852	-68.52470397949219	-341.73712158203125	-0.0	-0.0	-0.0	-0.0	-0.0	-0.0	72156.6953125	-30325.755859375	7448.8173828125
0.23500000000000001	-0.0	-0.0	-0.0	16.44491195678711	60.891143798828125	-300.3646240234375	11.30705738067627	-67.7569351196289	-342.7826538085937	-0.0	-0.0	-0.0	-0.0	-0.0	-0.0	72241.578125	-30504.119140625	7605.623046875
0.23550000000000001	-0.0	-0.0	-0.0	16.210641860961914	61.046756744384766	-303.7347412109375	12.412344932556152	-66.4919662475586	-342.9991760253906	-0.0	-0.0	-0.0	-0.0	-0.0	-0.0	72740.8828125	-30648.92578125	7756.7294921875
0.23600000000000002	-0.0	-0.0	-0.0	16.228574752807617	61.23258972167969	-303.1896667480469	13.491368293762209	-65.87338256835938	-344.6414794921875	-0.0	-0.0	-0.0	-0.0	-0.0	-0.0	73098.4375	-30991.458984375	7972.48974609375
0.23650000000000002	-0.0	-0.0	-0.0	17.00621223449707	61.19962310791016	-305.1474609375	13.84621238708496	-65.18141174316406	-347.5948791503906	-0.0	-0.0	-0.0	-0.0	-0.0	-0.0	73505.015625	-30769.890625	8034.69775390625
0.23700000000000002	-0.0	-0.0	-0.0	16.893787384033203	61.32171630859375	-303.6734924316406	14.10501480102539	-64.73979187011719	-346.5185546875	-0.0	-0.0	-0.0	-0.0	-0.0	-0.0	73636.6953125	-31243.10546875	7861.90869140625
0.23750000000000002	-0.0	-0.0	-0.0	17.047109603881836	61.1603889465332	-303.5425109863281	13.920101165771484	-64.24284362792969	-346.3879089355469	-0.0	-0.0	-0.0	-0.0	-0.0	-0.0	73446.8046875	-31052.216796875	7690.14794921875
0.23800000000000002	-0.0	-0.0	-0.0	16.982702255249023	60.738407135009766	-301.6823425292969	13.258501052856444	-63.44041061401367	-346.9265441894531	-0.0	-0.0	-0.0	-0.0	-0.0	-0.0	73427.4296875	-31083.7421875	7489.7744140625
0.23850000000000002	-0.0	-0.0	-0.0	17.120487213134766	60.59184646606445	-302.22784423828125	13.063048362731934	-63.15000915527344	-346.3583984375	-0.0	-0.0	-0.0	-0.0	-0.0	-0.0	73523.984375	-31215.96875	7306.693359375
0.23900000000000002	-0.0	-0.0	-0.0	17.217628479003906	60.35746383666992	-302.48260498046875	12.94408893585205	-62.36276626586914	-347.6258239746094	-0.0	-0.0	-0.0	-0.0	-0.0	-0.0	73877.578125	-31280.451171875	7293.2890625
0.23950000000000002	-0.0	-0.0	-0.0	16.893247604370117	59.79840850830078	-302.9963684082031	12.386726379394531	-62.700721740722656	-348.7113647460937	-0.0	-0.0	-0.0	-0.0	-0.0	-0.0	73993.2265625	-31184.541015625	7029.06396484375
0.24	-0.0	-0.0	-0.0	16.72283935546875	59.4334716796875	-304.44110107421875	11.669407844543455	-62.25894546508789	-347.0257263183594	-0.0	-0.0	-0.0	-0.0	-0.0	-0.0	73805.546875	-31203.140625	6831.3642578125
0.2405	-0.0	-0.0	-0.0	16.081768035888672	59.2230110168457	-304.5067443847656	11.201194763183594	-61.865421295166016	-347.6929931640625	-0.0	-0.0	-0.0	-0.0	-0.0	-0.0	73718.2421875	-30969.66796875	6680.17578125
0.241	-0.0	-0.0	-0.0	15.555797576904297	58.31513977050781	-304.28094482421875	10.790179252624512	-61.60829925537109	-347.9140930175781	-0.0	-0.0	-0.0	-0.0	-0.0	-0.0	74094.421875	-30960.66796875	6307.8310546875
0.2415	-0.0	-0.0	-0.0	15.62684440612793	58.56712341308594	-306.49322509765625	10.03236198425293	-61.33540725708008	-347.532958984375	-0.0	-0.0	-0.0	-0.0	-0.0	-0.0	74049.0390625	-31134.83984375	6083.4814453125
0.242	-0.0	-0.0	-0.0	15.393056869506836	58.25095748901367	-307.4935302734375	10.02431869506836	-61.12664794921875	-347.94549560546875	-0.0	-0.0	-0.0	-0.0	-0.0	-0.0	73749.703125	-31008.306640625	5940.5927734375
0.2425	-0.0	-0.0	-0.0	14.59016227722168	58.00053024291992	-309.28485107421875	9.927534103393556	-60.82154083251953	-348.2946472167969	-0.0	-0.0	-0.0	-0.0	-0.0	-0.0	74075.1796875	-31077.001953125	5865.091796875
0.243	-0.0	-0.0	-0.0	13.957118034362791	58.66509628295898	-310.6046447753906	9.500292778015137	-60.885501861572266	-348.64410400390625	-0.0	-0.0	-0.0	-0.0	-0.0	-0.0	73893.0	-31121.76953125	5724.7158203125
0.2435	-0.0	-0.0	-0.0	13.608930587768556	58.89225006103516	-312.1425170898437	9.669475555419922	-60.41203308105469	-346.739990234375	-0.0	-0.0	-0.0	-0.0	-0.0	-0.0	74087.328125	-30874.806640625	5514.5546875
0.244	-0.0	-0.0	-0.0	12.627697944641112	58.83488082885742	-314.1710205078125	9.50886344909668	-60.05874633789063	-348.4202575683594	-0.0	-0.0	-0.0	-0.0	-0.0	-0.0	74188.3828125	-31016.083984375	5449.69140625
0.2445	-0.0	-0.0	-0.0	12.083599090576172	58.71040725708008	-315.0364990234375	9.629337310791016	-60.29214859008789	-349.0852355957031	-0.0	-0.0	-0.0	-0.0	-0.0	-0.0	74497.140625	-30908.21875	5328.2412109375
